<?xml version="1.0" encoding="utf-8"?>
<!-- Generator: Adobe Illustrator 23.0.1, SVG Export Plug-In . SVG Version: 6.00 Build 0)  -->
<svg version="1.1" id="Layer_1" xmlns="http://www.w3.org/2000/svg" xmlns:xlink="http://www.w3.org/1999/xlink" x="0px" y="0px"
	 viewBox="0 0 1920 1080" enable-background="new 0 0 1920 1080" xml:space="preserve">
<path fill="#FFFF00" stroke="#000000" stroke-width="3" stroke-miterlimit="10" d="M934.95,591.54c-10.85-1.52-12.55,1.67-18.44,0
	c-11.21-3.18-16.2-17.95-18.44-24.58c-2.31-6.83-5.99-21.93,0-38.92c9-25.53,32.75-35.27,36.88-36.88
	c21.78-8.47,49.17-5.26,65.56,10.24c25.93,24.53,13.79,70.78,8.19,92.19c-11.49,43.98-29.52,43.59-47.12,96.29
	c-12.51,37.45-14.17,69.89-20.49,69.65c-4.39-0.16-7.21-15.2-8.19-20.49c-3.51-18.78-0.9-36.68,5.6-56.55
	c6.43-19.62,9.14-18.19,25.13-54.08c14.66-32.92,17.2-44.79,12.29-55.31c-4.31-9.25-13.46-15.93-16.39-14.34
	c-2.69,1.45,0.96,9.25-2.05,22.53c-1.27,5.63-2.4,10.28-6.15,12.29C947.33,595.74,944.13,592.83,934.95,591.54z"/>
<path fill="#ED1C24" stroke="#000000" stroke-width="3" stroke-miterlimit="10" d="M1001.46,575.39c0.08-0.57,0.25-1.96,0.54-4.19
	c0.31-2.41,0.54-4.17,0.55-4.23c4.28-32.42-11.05-51.46-11.05-51.46c-0.25-0.32-0.64-0.8-1.16-1.41c-0.22-0.26-0.55-0.64-0.97-1.11
	c-12.27-13.6-29.84-15.68-29.84-15.68c-23.12-2.7-39.41,15.34-41.03,17.19c-13.28,15.19-12.97,33.7-12.23,40.17
	c0.07,0.61,0.15,1.14,0.16,1.23c0.65,4.58,3.27,17.81,14.18,25.4c2.57,1.79,8.07,5.62,14.34,4.1c1.51-0.37,6.01-1.76,8.19-6.15
	c1.83-3.68,0.81-7.41,0-10.24c-2.26-7.92-6.58-8.28-8.19-14.34c-1.47-5.53,0.31-12.03,4.1-16.39c6.17-7.1,15.78-6.35,18.44-6.15
	c1.53,0.12,12.29,1.13,18.44,10.24c2.31,3.43,3.17,6.82,3.53,8.98c0.35,2.08,0.64,3.76,0.75,5.38c0.77,11.11-0.71,19.77-0.71,19.77
	c-0.51,4.89-2.11,13.8-8,23c-1.64,2.56-6.24,9.6-14.02,14.58c-14.94,9.56-35.11,7.32-49.17,0c-20.19-10.51-26.25-30.82-28.68-38.92
	c-7.73-25.73,1.48-47.36,4.1-53.26c10.76-24.24,30.22-35.28,36.88-38.92c6.29-3.45,19.08-10.26,36.88-10.24
	c4.54,0,15.84,0.46,28.68,6.15c19.77,8.75,29.74,23.92,32.78,28.68c12.48,19.56,12.46,39.2,12.29,51.22
	c-0.39,27.09-10.13,46.99-18.44,63.51c-14.08,27.99-21.93,28.32-40.97,63.51c-7.97,14.72-13.73,25.37-18.44,40.97
	c-10.91,36.15-5.39,63.27-8.19,63.51c-2.66,0.22-9.3-23.9-8.19-51.22c0.32-8.06,1.66-23.62,8.19-43.02
	c10.38-30.81,22.2-36.47,42.31-77.52C987.5,618.5,998.81,595.4,1001.46,575.39z"/>
<circle fill="#0000FF" stroke="#000000" stroke-width="5" stroke-miterlimit="10" cx="945.19" cy="358" r="88.09"/>
<ellipse fill="#FFFFFF" stroke="#000000" stroke-miterlimit="10" cx="945.19" cy="358" rx="63.51" ry="65.56"/>
<ellipse transform="matrix(0.124 -0.9923 0.9923 0.124 472.7686 1251.5145)" fill="#FF0000" stroke="#000000" stroke-width="3" stroke-miterlimit="10" cx="945.19" cy="358" rx="53.26" ry="51.6"/>
<g id="Layer_2">
</g>
<path fill="none" stroke="#000000" stroke-width="3" stroke-miterlimit="10" d="M963.63,276.06"/>
<path fill="#FFFFFF" stroke="#000000" stroke-miterlimit="10" d="M1297.55,464.53"/>
<path fill="#FF0000" stroke="#000000" stroke-miterlimit="10" d="M1467.59,11.78"/>
<path fill="#FFFF00" stroke="#000000" stroke-miterlimit="10" d="M6683.57,676.55c9.92,4.66,12.49,2.11,17.62,5.45
	c9.77,6.35,10.17,21.93,10.35,28.93c0.19,7.21-0.76,22.72-11.5,37.19c-16.14,21.74-41.71,24.02-46.12,24.34
	c-23.31,1.66-48.53-9.5-59.61-29.15c-17.52-31.09,7.74-71.7,19.4-90.5c23.97-38.62,41.07-32.92,73.46-78.07
	c23.01-32.09,34.18-62.59,40.15-60.49c3.36,1.18,2.5,11.83,1.78,21.99c-0.56,7.9-1.94,25.17-11.36,43.66
	c-10.78,21.18-19.61,19.45-50.68,52.95c-25.97,28-29.41,39.57-28.08,49.21c1.39,10.11,8.15,19.19,11.42,18.54
	c3-0.59,1.81-9.12,8.61-20.92c2.88-5,5.33-9.11,9.5-9.93C6672.98,668.88,6675.18,672.61,6683.57,676.55z"/>
<path fill="#ED1C24" stroke="#000000" stroke-miterlimit="10" d="M6677.8,709.08c1.91,5.38-4.01,12.82-9.36,16.4
	c-8.08,5.41-18.54,4.44-25.91,0.57c-1.67-0.88-9.63-5.3-12.63-14.63c-2.24-6.98-0.53-12.81,2.14-20.78
	c5.69-16.98,16-27.78,20.68-32.2c7.03-6.65,10.59-10.03,16.58-12.03c16.61-5.54,35.83,4.84,46.37,16.48
	c14.13,15.6,14.01,34.96,13.95,45.05c-0.04,6.88-0.53,29.81-17.69,50.28c-16.6,19.8-38.08,24.53-46.73,26.3
	c-7.02,1.44-21.26,4.17-38.26-1.11c-4.34-1.35-14.99-5.12-25.59-14.34c-16.3-14.2-21.35-31.64-22.84-37.08
	c-6.15-22.38-0.33-41.14,3.38-52.56c8.37-25.76,23.56-41.9,36.37-55.23c21.72-22.58,29.32-20.58,57.9-48.57
	c11.96-11.71,20.61-20.18,29.72-33.7c21.1-31.32,23.84-58.86,26.59-58.25c2.6,0.57,1.82,25.58-7.3,51.35
	c-7.57,21.4-18.15,35.55-20.54,38.68c-19.26,25.24-30.51,20.8-54.74,45.26c-22.05,22.27-31.42,44.81-38.19,61.1
	c-7.34,17.67-11.7,28.59-8.79,42.31c0.32,1.53,6.15,29.2,29.32,36.94c13.89,4.64,26.79-0.3,32.99-2.67
	c4.17-1.6,13.54-5.31,21.71-14.73c8.22-9.48,10.57-19.35,11.18-22.28c1.32-6.31,4.05-19.42-3.88-29.07
	c-1.2-1.47-5.32-6.62-12.49-8.15c-2.48-0.53-8.68-1.86-13.56,2.24c-3.92,3.3-6.01,9.28-4.24,13.7
	C6666.58,704.91,6675.77,703.34,6677.8,709.08z"/>
<circle fill="#0000FF" stroke="#000000" stroke-width="2" stroke-miterlimit="10" cx="6588.41" cy="820.85" r="72.85"/>
<ellipse transform="matrix(0.2954 -0.9554 0.9554 0.2954 3858.1416 6872.8364)" fill="#FFFFFF" stroke="#000000" stroke-miterlimit="10" cx="6588.41" cy="820.85" rx="54.21" ry="52.52"/>
<ellipse transform="matrix(0.4115 -0.9114 0.9114 0.4115 3128.8982 6487.6558)" fill="#FF0000" stroke="#000000" stroke-miterlimit="10" cx="6588.41" cy="820.85" rx="44.05" ry="42.67"/>
<path fill="none" stroke="#000000" stroke-miterlimit="10" d="M6553.83,881.09"/>
<path fill="#FFFFFF" stroke="#000000" stroke-miterlimit="10" d="M6299.62,690.79"/>
<path fill="#FF0000" stroke="#000000" stroke-miterlimit="10" d="M6137.06,820.49"/>
<path fill="#ED1C24" stroke="#000000" stroke-miterlimit="10" d="M1092.69,552.62"/>
<path fill="#ED1C24" stroke="#000000" stroke-miterlimit="10" d="M1088.59,607.93"/>
<path fill="#ED1C24" stroke="#000000" stroke-miterlimit="10" d="M1076.3,566.96"/>
<g>
	<g>
		<g>
			<path fill="#FF1D25" stroke="#000000" stroke-width="4" stroke-miterlimit="10" d="M929.82,174.51c7.28-12.6,25.47-12.6,32.74,0
				l9.98,17.28l9.97,17.29c7.27,12.6-1.82,28.35-16.37,28.35h-19.95h-19.95c-14.55,0-23.65-15.76-16.37-28.36l9.98-17.28
				L929.82,174.51z"/>
			<path fill="#0000FF" stroke="#000000" stroke-width="4" stroke-miterlimit="10" d="M1052.47,190.34
				c11.14-9.36,28.24-3.15,30.78,11.18l3.48,19.64l3.48,19.64c2.54,14.33-11.39,26.03-25.07,21.07l-18.76-6.81l-18.75-6.81
				c-13.68-4.97-16.85-22.88-5.7-32.24l15.27-12.83L1052.47,190.34z"/>
			<path fill="#FF1D25" stroke="#000000" stroke-width="4" stroke-miterlimit="10" d="M1162.35,247.08
				c13.67-5,27.62,6.68,25.11,21.01l-3.44,19.65l-3.44,19.65c-2.51,14.33-19.59,20.58-30.75,11.24l-15.3-12.8l-15.29-12.8
				c-11.16-9.34-8.02-27.26,5.64-32.25l18.73-6.85L1162.35,247.08z"/>
			<path fill="#0000FF" stroke="#000000" stroke-width="4" stroke-miterlimit="10" d="M1246.26,337.92
				c14.55-0.03,23.68,15.7,16.43,28.32l-9.93,17.29l-9.94,17.3c-7.25,12.62-25.44,12.66-32.74,0.07l-10.01-17.25l-10.01-17.25
				c-7.3-12.59,1.76-28.36,16.31-28.39l19.95-0.04L1246.26,337.92z"/>
			<path fill="#FF1D25" stroke="#000000" stroke-width="4" stroke-miterlimit="10" d="M1294.13,448.85
				c13.69,4.94,16.9,22.85,5.78,32.23l-15.24,12.86l-15.25,12.87c-11.12,9.39-28.23,3.21-30.8-11.11l-3.52-19.63l-3.52-19.64
				c-2.57-14.32,11.33-26.06,25.02-21.12l18.77,6.77L1294.13,448.85z"/>
			<path fill="#0000FF" stroke="#000000" stroke-width="4" stroke-miterlimit="10" d="M1300.19,572.37
				c11.18,9.32,8.08,27.24-5.58,32.27l-18.72,6.88l-18.71,6.89c-13.66,5.03-27.64-6.61-25.16-20.96l3.39-19.65l3.39-19.66
				c2.48-14.34,19.55-20.63,30.73-11.31l15.32,12.77L1300.19,572.37z"/>
			<path fill="#FF1D25" stroke="#000000" stroke-width="4" stroke-miterlimit="10" d="M1263.73,690.54
				c7.33,12.57-1.7,28.36-16.25,28.42l-19.94,0.08l-19.96,0.08c-14.55,0.06-23.71-15.65-16.49-28.29l9.9-17.32l9.91-17.33
				c7.23-12.63,25.42-12.7,32.74-0.13l10.04,17.23L1263.73,690.54z"/>
			<path fill="#0000FF" stroke="#000000" stroke-width="4" stroke-miterlimit="10" d="M1189.12,789.16
				c2.59,14.32-11.28,26.08-24.98,21.17l-18.78-6.73l-18.77-6.72c-13.7-4.91-16.95-22.81-5.85-32.22l15.21-12.9l15.23-12.91
				c11.1-9.41,28.23-3.27,30.82,11.05l3.56,19.63L1189.12,789.16z"/>
			<path fill="#FF1D25" stroke="#000000" stroke-width="4" stroke-miterlimit="10" d="M1085.33,856.38
				c-2.44,14.35-19.51,20.67-30.71,11.38l-15.34-12.73l-15.35-12.73c-11.2-9.29-8.15-27.22,5.5-32.28l18.7-6.93l18.71-6.93
				c13.65-5.05,27.65,6.57,25.2,20.91l-3.36,19.66L1085.33,856.38z"/>
			<path fill="#0000FF" stroke="#000000" stroke-width="4" stroke-miterlimit="10" d="M964.83,884.16
				c-7.2,12.65-25.39,12.76-32.74,0.21L922,867.16l-10.08-17.21c-7.36-12.56,1.64-28.37,16.19-28.46l19.94-0.13l19.94-0.13
				c14.55-0.09,23.75,15.6,16.55,28.25l-9.86,17.33L964.83,884.16z"/>
			<path fill="#FF1D25" stroke="#000000" stroke-width="4" stroke-miterlimit="10" d="M842.08,869.11
				c-11.08,9.44-28.22,3.34-30.85-10.98l-3.6-19.62l-3.6-19.61c-2.63-14.31,11.22-26.11,24.93-21.23l18.8,6.69l18.79,6.69
				c13.71,4.88,16.99,22.78,5.91,32.21l-15.19,12.92L842.08,869.11z"/>
			<path fill="#0000FF" stroke="#000000" stroke-width="4" stroke-miterlimit="10" d="M731.83,813.09
				c-13.63,5.08-27.66-6.49-25.25-20.84l3.31-19.68l3.31-19.67c2.42-14.35,19.46-20.7,30.68-11.44l15.39,12.71l15.38,12.71
				c11.22,9.27,8.2,27.21-5.44,32.29l-18.69,6.96L731.83,813.09z"/>
			<path fill="#FF1D25" stroke="#000000" stroke-width="4" stroke-miterlimit="10" d="M647.33,722.78
				c-14.55,0.12-23.78-15.55-16.61-28.22l9.83-17.37l9.83-17.36c7.17-12.66,25.36-12.82,32.74-0.28l10.12,17.19l10.13,17.19
				c7.39,12.54-1.57,28.38-16.13,28.5l-19.94,0.17L647.33,722.78z"/>
			<path fill="#0000FF" stroke="#000000" stroke-width="4" stroke-miterlimit="10" d="M598.76,609.06
				c-13.72-4.85-17.05-22.74-5.98-32.19l15.17-12.97l15.14-12.95c11.06-9.46,28.21-3.4,30.87,10.91l3.65,19.6l3.65,19.62
				c2.66,14.31-11.17,26.13-24.89,21.28l-18.79-6.65L598.76,609.06z"/>
			<path fill="#FF1D25" stroke="#000000" stroke-width="4" stroke-miterlimit="10" d="M591.9,485.58
				c-11.24-9.24-8.26-27.19,5.37-32.3l18.67-7l18.67-7.01c13.62-5.11,27.68,6.44,25.29,20.79l-3.27,19.68l-3.27,19.68
				c-2.39,14.36-19.42,20.75-30.66,11.5l-15.39-12.66L591.9,485.58z"/>
			<path fill="#0000FF" stroke="#000000" stroke-width="4" stroke-miterlimit="10" d="M627.61,367.18
				c-7.41-12.53,1.52-28.38,16.07-28.53l19.96-0.21l19.93-0.21c14.55-0.15,23.81,15.5,16.67,28.18l-9.79,17.37l-9.79,17.39
				c-7.14,12.68-25.33,12.87-32.74,0.35l-10.15-17.16L627.61,367.18z"/>
			<path fill="#FF1D25" stroke="#000000" stroke-width="4" stroke-miterlimit="10" d="M701.58,268.08
				c-2.69-14.3,11.11-26.15,24.84-21.33l18.83,6.61l18.82,6.61c13.73,4.82,17.09,22.7,6.05,32.18l-15.13,13l-15.15,13
				c-11.04,9.48-28.2,3.45-30.89-10.85l-3.69-19.6L701.58,268.08z"/>
			<path fill="#0000FF" stroke="#000000" stroke-width="4" stroke-miterlimit="10" d="M804.95,203.29
				c2.35-14.36,19.37-20.79,30.63-11.57l15.43,12.64l15.43,12.63c11.26,9.22,8.32,27.17-5.3,32.31l-18.65,7.04l-18.68,7.05
				c-13.62,5.14-27.69-6.39-25.33-20.75l3.23-19.67L804.95,203.29z"/>
		</g>
	</g>
</g>
<path fill="#FF1D25" stroke="#000000" stroke-width="4" stroke-miterlimit="10" d="M1289,578"/>
<path fill="#0000FF" stroke="#000000" stroke-width="4" stroke-miterlimit="10" d="M1084,809"/>
<path fill="#ED1C24" stroke="#000000" stroke-width="3" stroke-miterlimit="10" d="M983.5,533.5"/>
<path fill="#ED1C24" stroke="#000000" stroke-width="3" stroke-miterlimit="10" d="M950.5,521.5"/>
<path fill="#FFFF00" stroke="#000000" stroke-width="3" stroke-miterlimit="10" d="M1021.5,686.5"/>
<g>
</g>
<g>
</g>
<g>
</g>
<g>
</g>
<g>
</g>
<g>
</g>
<g>
</g>
<g>
</g>
<g>
</g>
<g>
</g>
<g>
</g>
<g>
</g>
<g>
</g>
<g>
</g>
<g>
</g>
</svg>
